<svg xmlns="http://www.w3.org/2000/svg" height="639pt" version="1.1" viewBox="-42 1 639 639.99878" width="639pt">
<g id="surface1">
<path d="M 544.496094 213.335938 L 352.5 213.335938 L 352.5 181.332031 C 352.5 175.445312 347.726562 170.664062 341.832031 170.664062 L 331.164062 170.664062 L 331.164062 138.667969 C 331.164062 109.207031 307.285156 85.332031 277.832031 85.332031 C 248.375 85.332031 224.496094 109.207031 224.496094 138.667969 L 224.496094 170.664062 L 213.828125 170.664062 C 207.941406 170.664062 203.164062 175.445312 203.164062 181.332031 L 203.164062 213.335938 L 11.167969 213.335938 C 5.273438 213.335938 0.5 218.109375 0.5 224 L 0.5 330.667969 C 0.5 336.558594 5.273438 341.332031 11.167969 341.332031 L 72.636719 341.332031 L 11.402344 627.09375 C 10.164062 632.855469 13.828125 638.523438 19.589844 639.757812 C 20.328125 639.921875 21.082031 640 21.832031 640 L 64.5 640 C 69.527344 640 73.875 636.488281 74.933594 631.570312 L 105.117188 490.667969 L 450.546875 490.667969 L 480.734375 631.570312 C 481.789062 636.488281 486.132812 640 491.167969 640 L 533.832031 640 C 539.722656 640.003906 544.503906 635.226562 544.503906 629.335938 C 544.503906 628.582031 544.417969 627.832031 544.261719 627.09375 L 483.023438 341.332031 L 544.496094 341.332031 C 550.386719 341.332031 555.160156 336.558594 555.160156 330.667969 L 555.160156 224 C 555.167969 218.109375 550.390625 213.335938 544.496094 213.335938 Z M 444.234375 320 L 367.828125 320 L 453.160156 234.667969 L 529.621094 234.667969 Z M 250.492188 320 L 335.824219 234.667969 L 422.992188 234.667969 L 337.660156 320 Z M 143.828125 320 L 229.160156 234.667969 L 305.660156 234.667969 L 220.328125 320 Z M 37.160156 320 L 122.496094 234.667969 L 198.996094 234.667969 L 113.664062 320 Z M 245.832031 138.667969 C 245.832031 120.992188 260.15625 106.664062 277.832031 106.664062 C 295.507812 106.664062 309.835938 120.992188 309.835938 138.667969 L 309.835938 170.667969 L 245.835938 170.667969 L 245.835938 138.667969 Z M 224.496094 192 L 331.167969 192 L 331.167969 213.335938 L 224.496094 213.335938 Z M 92.332031 234.667969 L 21.832031 305.160156 L 21.832031 234.667969 Z M 55.871094 618.664062 L 35.03125 618.664062 L 94.464844 341.332031 L 115.3125 341.332031 Z M 109.703125 469.332031 L 114.292969 447.996094 L 441.371094 447.996094 L 445.960938 469.332031 Z M 118.835938 426.664062 L 137.121094 341.332031 L 418.550781 341.332031 L 436.832031 426.664062 Z M 520.640625 618.664062 L 499.796875 618.664062 L 440.351562 341.332031 L 461.203125 341.332031 Z M 474.464844 320 L 533.832031 260.628906 L 533.832031 320 Z M 474.464844 320 " style=" stroke:none;fill-rule:nonzero;fill:rgb(0%,0%,0%);fill-opacity:1;" />
<path d="M 277.832031 64 C 283.726562 64 288.5 59.222656 288.5 53.328125 L 288.5 10.667969 C 288.5 4.773438 283.726562 0 277.832031 0 C 271.945312 0 267.167969 4.773438 267.167969 10.667969 L 267.167969 53.335938 C 267.167969 59.222656 271.9375 64 277.832031 64 Z M 277.832031 64 " style=" stroke:none;fill-rule:nonzero;fill:rgb(0%,0%,0%);fill-opacity:1;" />
<path d="M 225.929688 70.101562 C 228.839844 75.222656 235.351562 77.011719 240.472656 74.101562 C 245.597656 71.191406 247.386719 64.675781 244.472656 59.554688 C 244.453125 59.515625 244.429688 59.472656 244.40625 59.433594 L 223.070312 22.476562 C 220.089844 17.390625 213.554688 15.6875 208.472656 18.667969 C 203.4375 21.617188 201.710938 28.066406 204.59375 33.140625 Z M 225.929688 70.101562 " style=" stroke:none;fill-rule:nonzero;fill:rgb(0%,0%,0%);fill-opacity:1;" />
<path d="M 161.640625 83.90625 L 198.601562 105.238281 C 203.683594 108.21875 210.21875 106.511719 213.199219 101.429688 C 216.175781 96.347656 214.472656 89.8125 209.390625 86.835938 C 209.351562 86.8125 209.308594 86.785156 209.269531 86.761719 L 172.304688 65.429688 C 167.183594 62.519531 160.675781 64.304688 157.765625 69.429688 C 154.878906 74.5 156.609375 80.953125 161.640625 83.90625 Z M 161.640625 83.90625 " style=" stroke:none;fill-rule:nonzero;fill:rgb(0%,0%,0%);fill-opacity:1;" />
<path d="M 149.835938 149.335938 L 192.5 149.335938 C 198.390625 149.335938 203.164062 144.558594 203.164062 138.667969 C 203.164062 132.773438 198.390625 127.996094 192.5 127.996094 L 149.835938 127.996094 C 143.941406 127.996094 139.167969 132.773438 139.167969 138.667969 C 139.167969 144.558594 143.941406 149.335938 149.835938 149.335938 Z M 149.835938 149.335938 " style=" stroke:none;fill-rule:nonzero;fill:rgb(0%,0%,0%);fill-opacity:1;" />
<path d="M 352.5 138.667969 C 352.5 144.554688 357.277344 149.335938 363.164062 149.335938 L 405.832031 149.335938 C 411.722656 149.335938 416.5 144.558594 416.5 138.667969 C 416.5 132.773438 411.722656 127.996094 405.832031 127.996094 L 363.164062 127.996094 C 357.277344 127.996094 352.5 132.773438 352.5 138.667969 Z M 352.5 138.667969 " style=" stroke:none;fill-rule:nonzero;fill:rgb(0%,0%,0%);fill-opacity:1;" />
<path d="M 342.496094 101.332031 C 345.441406 106.433594 351.964844 108.183594 357.066406 105.238281 L 394.023438 83.90625 C 399.105469 80.921875 400.8125 74.390625 397.832031 69.304688 C 394.882812 64.273438 388.433594 62.542969 383.359375 65.429688 L 346.398438 86.761719 C 341.292969 89.707031 339.546875 96.230469 342.496094 101.332031 Z M 342.496094 101.332031 " style=" stroke:none;fill-rule:nonzero;fill:rgb(0%,0%,0%);fill-opacity:1;" />
<path d="M 315.167969 74.003906 C 320.269531 76.953125 326.792969 75.203125 329.738281 70.101562 L 351.070312 33.140625 C 353.980469 28.015625 352.1875 21.507812 347.066406 18.597656 C 341.996094 15.710938 335.546875 17.441406 332.59375 22.476562 L 311.261719 59.433594 C 308.316406 64.535156 310.0625 71.058594 315.167969 74.003906 Z M 315.167969 74.003906 " style=" stroke:none;fill-rule:nonzero;fill:rgb(0%,0%,0%);fill-opacity:1;" />
</g>
</svg>